<svg id="visual" viewBox="0 0 900 600" width="900" height="600" xmlns="http://www.w3.org/2000/svg" xmlns:xlink="http://www.w3.org/1999/xlink" version="1.1"><g><g transform="translate(868 207)"><path d="M0 -48.6L46.2 -15L28.6 39.3L-28.6 39.3L-46.2 -15Z" fill="#dcdfe2"></path></g><g transform="translate(488 4)"><path d="M0 -38L36.1 -11.7L22.3 30.7L-22.3 30.7L-36.1 -11.7Z" fill="#dcdfe2"></path></g><g transform="translate(32 555)"><path d="M0 -37L35.2 -11.4L21.7 29.9L-21.7 29.9L-35.2 -11.4Z" fill="#dcdfe2"></path></g><g transform="translate(202 313)"><path d="M0 -47L44.7 -14.5L27.6 38L-27.6 38L-44.7 -14.5Z" fill="#dcdfe2"></path></g><g transform="translate(593 190)"><path d="M0 -32L30.4 -9.9L18.8 25.9L-18.8 25.9L-30.4 -9.9Z" fill="#dcdfe2"></path></g><g transform="translate(831 323)"><path d="M0 -47L44.7 -14.5L27.6 38L-27.6 38L-44.7 -14.5Z" fill="#dcdfe2"></path></g><g transform="translate(842 479)"><path d="M0 -30L28.5 -9.3L17.6 24.3L-17.6 24.3L-28.5 -9.3Z" fill="#dcdfe2"></path></g><g transform="translate(86 278)"><path d="M0 -40L38 -12.4L23.5 32.4L-23.5 32.4L-38 -12.4Z" fill="#dcdfe2"></path></g><g transform="translate(598 463)"><path d="M0 -31L29.5 -9.6L18.2 25.1L-18.2 25.1L-29.5 -9.6Z" fill="#dcdfe2"></path></g><g transform="translate(265 550)"><path d="M0 -41L39 -12.7L24.1 33.2L-24.1 33.2L-39 -12.7Z" fill="#dcdfe2"></path></g><g transform="translate(330 215)"><path d="M0 -36L34.2 -11.1L21.2 29.1L-21.2 29.1L-34.2 -11.1Z" fill="#dcdfe2"></path></g><g transform="translate(436 155)"><path d="M0 -35L33.3 -10.8L20.6 28.3L-20.6 28.3L-33.3 -10.8Z" fill="#dcdfe2"></path></g><g transform="translate(71 423)"><path d="M0 -47L44.7 -14.5L27.6 38L-27.6 38L-44.7 -14.5Z" fill="#dcdfe2"></path></g><g transform="translate(522 321)"><path d="M0 -42L39.9 -13L24.7 34L-24.7 34L-39.9 -13Z" fill="#dcdfe2"></path></g><g transform="translate(216 179)"><path d="M0 -43L40.9 -13.3L25.3 34.8L-25.3 34.8L-40.9 -13.3Z" fill="#dcdfe2"></path></g><g transform="translate(175 463)"><path d="M0 -35L33.3 -10.8L20.6 28.3L-20.6 28.3L-33.3 -10.8Z" fill="#dcdfe2"></path></g><g transform="translate(65 99)"><path d="M0 -33L31.4 -10.2L19.4 26.7L-19.4 26.7L-31.4 -10.2Z" fill="#dcdfe2"></path></g><g transform="translate(488 523)"><path d="M0 -41L39 -12.7L24.1 33.2L-24.1 33.2L-39 -12.7Z" fill="#dcdfe2"></path></g><g transform="translate(581 91)"><path d="M0 -33L31.4 -10.2L19.4 26.7L-19.4 26.7L-31.4 -10.2Z" fill="#dcdfe2"></path></g><g transform="translate(725 528)"><path d="M0 -35L33.3 -10.8L20.6 28.3L-20.6 28.3L-33.3 -10.8Z" fill="#dcdfe2"></path></g><g transform="translate(156 38)"><path d="M0 -37L35.2 -11.4L21.7 29.9L-21.7 29.9L-35.2 -11.4Z" fill="#dcdfe2"></path></g><g transform="translate(376 441)"><path d="M0 -42L39.9 -13L24.7 34L-24.7 34L-39.9 -13Z" fill="#dcdfe2"></path></g><g transform="translate(746 200)"><path d="M0 -40L38 -12.4L23.5 32.4L-23.5 32.4L-38 -12.4Z" fill="#dcdfe2"></path></g><g transform="translate(851 74)"><path d="M0 -38L36.1 -11.7L22.3 30.7L-22.3 30.7L-36.1 -11.7Z" fill="#dcdfe2"></path></g><g transform="translate(254 25)"><path d="M0 -30L28.5 -9.3L17.6 24.3L-17.6 24.3L-28.5 -9.3Z" fill="#dcdfe2"></path></g><g transform="translate(27 10)"><path d="M0 -38L36.1 -11.7L22.3 30.7L-22.3 30.7L-36.1 -11.7Z" fill="#dcdfe2"></path></g><g transform="translate(731 78)"><path d="M0 -44L41.8 -13.6L25.9 35.6L-25.9 35.6L-41.8 -13.6Z" fill="#dcdfe2"></path></g><g transform="translate(675 290)"><path d="M0 -34L32.3 -10.5L20 27.5L-20 27.5L-32.3 -10.5Z" fill="#dcdfe2"></path></g><g transform="translate(393 295)"><path d="M0 -43L40.9 -13.3L25.3 34.8L-25.3 34.8L-40.9 -13.3Z" fill="#dcdfe2"></path></g><g transform="translate(713 399)"><path d="M0 -31L29.5 -9.6L18.2 25.1L-18.2 25.1L-29.5 -9.6Z" fill="#dcdfe2"></path></g><g transform="translate(380 25)"><path d="M0 -43L40.9 -13.3L25.3 34.8L-25.3 34.8L-40.9 -13.3Z" fill="#dcdfe2"></path></g><g transform="translate(392 545)"><path d="M0 -41L39 -12.7L24.1 33.2L-24.1 33.2L-39 -12.7Z" fill="#dcdfe2"></path></g><g transform="translate(136 579)"><path d="M0 -37L35.2 -11.4L21.7 29.9L-21.7 29.9L-35.2 -11.4Z" fill="#dcdfe2"></path></g><g transform="translate(274 388)"><path d="M0 -40L38 -12.4L23.5 32.4L-23.5 32.4L-38 -12.4Z" fill="#dcdfe2"></path></g><g transform="translate(606 598)"><path d="M0 -41L39 -12.7L24.1 33.2L-24.1 33.2L-39 -12.7Z" fill="#dcdfe2"></path></g><g transform="translate(817 578)"><path d="M0 -44L41.8 -13.6L25.9 35.6L-25.9 35.6L-41.8 -13.6Z" fill="#dcdfe2"></path></g><g transform="translate(301 120)"><path d="M0 -45L42.8 -13.9L26.5 36.4L-26.5 36.4L-42.8 -13.9Z" fill="#dcdfe2"></path></g><g transform="translate(6 216)"><path d="M0 -31L29.5 -9.6L18.2 25.1L-18.2 25.1L-29.5 -9.6Z" fill="#dcdfe2"></path></g><g transform="translate(5 340)"><path d="M0 -39L37.1 -12.1L22.9 31.6L-22.9 31.6L-37.1 -12.1Z" fill="#dcdfe2"></path></g><g transform="translate(487 416)"><path d="M0 -41L39 -12.7L24.1 33.2L-24.1 33.2L-39 -12.7Z" fill="#dcdfe2"></path></g><g transform="translate(645 10)"><path d="M0 -34L32.3 -10.5L20 27.5L-20 27.5L-32.3 -10.5Z" fill="#dcdfe2"></path></g></g></svg>